/* XPM */
static char *collect_xpm[] = {
"32 32 3 1",
" 	c #0000FF", // Fondo: Azul del Floor
".	c #000000", // Borde: Negro
"X	c #FFA500", // Pez: Naranja
/* pixels */
"                                ",
"                                ",
"                                ",
"                                ",
"                                ",
"                                ",
"                                ",
"              ....              ",
"             .XXXX.             ",
"            .XXXXXX.            ",
"           .XXXXXXXX.           ",
"          .XXXXXXXXXX.          ",
"         .XXXXXXXXXXXX.         ",
"        .XXXXXXXXXXXXXX.        ",
"        .XXXXXXX.XXXXXX.        ",
"       .XXXXXXXXXXXXXXXX.       ",
"       .XXXXXXXXXXXXXXXX.       ",
"      .XXXXXXXXXXXXXXXXXX.      ",
"      .XXXXXXXXX.XXXXXXXX.      ",
"     .XXXXXXXXXX.XXXXXXXXXX.    ",
"     .XXXXXXXXXXX.XXXXXXXXXX.   ",
"    .XXXXXXXXXXXXXXXXXXXXXXX.   ",
"    .XXXXXXXXXXXX.XXXXXXXXXX.   ",
"    .XXXXXX.XXXXXX.XXXXXX.XX.   ",
"   .XXXX.XXXXXXXXXXXX.XXXX.     ",
"   .X.X.XXXXXXXXXXXXX.XX.       ",
"   ..XXXXXXXXXXXXXXXXXX.        ",
"   .XXXXXXXXXXXXXXXXXXX.        ",
"   .X.XXXXXXXXXXXXXXXX.         ",
"   ..X.X.X.X.X.X.X.X.X.         ",
"                                ",
"                                "
};