/* XPM */
static char *player_xpm[] = {
"32 32 3 1",
" 	c #0000FF", // Fondo: Azul del Floor
".	c #000000", // Borde: Negro
"X	c #333333", // Delfín: Gris Oscuro
/* pixels */
"                                ",
"                                ",
"                                ",
"                                ",
"                                ",
"                  ....          ",
"                 .XXXX.         ",
"                .XXXXXX.        ",
"               .XXXXXXXX.       ",
"              .XXXXXXXXXX.      ",
"             .XXXXXXXXXXXX.     ",
"            .XXXXXXXXXXXXXX.    ",
"           .XXXXXXXXXXXXXXXX.   ",
"          .XXXXXXXXXXXXXXXXXX.  ",
"          .XXXXXXXXXXXXXXXXXX.  ",
"         .XXXXXXXXXXXXXXXXXXXX. ",
"         .XXXXXXXXXXXXXXXXXXXX. ",
"        .XXXXXXXXXXXXXXXXXXXXXX.",
"        .XXXXXXXXXXXXXXXXXXXXXX.",
"        .XXXXXXXXXXXXXXXXXXXXXX.",
"        .X.XXXXXXXXXXXXXXXXXXXX.",
"        ..XXXXXXXXXXXXXXXXXXXX. ",
"       .XXXXXXXXXXXXXXXXXXXX.   ",
"       .XXXXXXXXXXXXXXXXXXX.    ",
"      .XXXXXXXXXXXXXXXXXX.      ",
"      .XXXXXXXXXXXXXXXXXX.      ",
"     .XXXXX.X.X.X.X.X.X.X.      ",
"    .X.XXXXX.X.X.X.X.X.X.       ",
"    .X.X.X.X.X.X.X.X.X.X.       ",
"                                ",
"                                ",
"                                "
};