/* XPM */
static char *wall_xpm[] = {
"32 32 2 1", // Cambia 3 a 2 colores si eliminas el ' '
".	c #000000", // Borde: Negro
"X	c #00A300", // Relleno: Verde
/* pixels */
"................................",
".XXX.XXX.XXX.XXX.XXX.XXX.XXX.XXX",
".XXX.XXX.XXX.XXX.XXX.XXX.XXX.XXX",
".XXX.XXX.XXX.XXX.XXX.XXX.XXX.XXX",
"................................",
".XXX.XXX.XXX.XXX.XXX.XXX.XXX.XXX",
".XXX.XXX.XXX.XXX.XXX.XXX.XXX.XXX",
".XXX.XXX.XXX.XXX.XXX.XXX.XXX.XXX",
"................................",
".XXX.XXX.XXX.XXX.XXX.XXX.XXX.XXX",
".XXX.XXX.XXX.XXX.XXX.XXX.XXX.XXX",
".XXX.XXX.XXX.XXX.XXX.XXX.XXX.XXX",
"................................",
".XXX.XXX.XXX.XXX.XXX.XXX.XXX.XXX",
".XXX.XXX.XXX.XXX.XXX.XXX.XXX.XXX",
".XXX.XXX.XXX.XXX.XXX.XXX.XXX.XXX",
"................................",
".XXX.XXX.XXX.XXX.XXX.XXX.XXX.XXX",
".XXX.XXX.XXX.XXX.XXX.XXX.XXX.XXX",
".XXX.XXX.XXX.XXX.XXX.XXX.XXX.XXX",
"................................",
".XXX.XXX.XXX.XXX.XXX.XXX.XXX.XXX",
".XXX.XXX.XXX.XXX.XXX.XXX.XXX.XXX",
".XXX.XXX.XXX.XXX.XXX.XXX.XXX.XXX",
"................................",
".XXX.XXX.XXX.XXX.XXX.XXX.XXX.XXX",
".XXX.XXX.XXX.XXX.XXX.XXX.XXX.XXX",
".XXX.XXX.XXX.XXX.XXX.XXX.XXX.XXX",
"................................",
".XXX.XXX.XXX.XXX.XXX.XXX.XXX.XXX",
".XXX.XXX.XXX.XXX.XXX.XXX.XXX.XXX",
".XXX.XXX.XXX.XXX.XXX.XXX.XXX.XXX"
};