/* XPM */
static char *player_xpm[] = {
"32 32 4 1",
" 	c #444444", /* Fondo gris oscuro */
".	c #4444FF", /* Color principal: Azul */
"X	c #0000AA", /* Sombra: Azul oscuro */
"o	c #000000", /* Borde */
/* pixels */
"                                ",
" oooooooooooooooooooooooooooooo ",
" oXXXXXXXXXXXXXXXXXXXXXXXXXXXXo ",
" oXX...XXXXXXXXXXX...XXXXXX...o ",
" oXX.X.XXXXXXXXXXX.X.XXXXXX.X.o ",
" oXX...XXXXXXXXXXX...XXXXXX...o ",
" oXXXXXXXXXXXXXXXXXXXXXXXXXXXXo ",
" oXXXXXXXXXXXXXXXXXXXXXXXXXXXXo ",
" oXX..XXXXXXXXXXX..XXXXXX..XX.o ",
" oXX.X.XXXXXXXXXXX.X.XXXXXX.X.o ",
" oXX..XXXXXXXXXXX..XXXXXX..XX.o ",
" oXXXXXXXXXXXXXXXXXXXXXXXXXXXXo ",
" oXXXXXXXXXXXXXXXXXXXXXXXXXXXXo ",
" oXXXXXXXXXXXXXXXXXXXXXXXXXXXXo ",
" oXXXXXXXXX.XXXXXXXXX.XXXXXXXXo ",
" oXXXXXXXXX.XXXXXXXXX.XXXXXXXXo ",
" oXXXXXXXXX.XXXXXXXXX.XXXXXXXXo ",
" oXXXXXXXXXXXXXXXXXXXXXXXXXXXXo ",
" oXXXXXXXXXXXXXXXXXXXXXXXXXXXXo ",
" oXXXXXXXXXXXXXXXXXXXXXXXXXXXXo ",
" oXXXXXXXXX.XXXXXXXXX.XXXXXXXXo ",
" oXXXXXXXXX.XXXXXXXXX.XXXXXXXXo ",
" oXXXXXXXXX.XXXXXXXXX.XXXXXXXXo ",
" oXXXXXXXXXXXXXXXXXXXXXXXXXXXXo ",
" oXXXXXXXXXXXXXXXXXXXXXXXXXXXXo ",
" oXXXXXXXXXXXXXXXXXXXXXXXXXXXXo ",
" oXXXXXXXXXXXXXXXXXXXXXXXXXXXXo ",
" oXXXXXXXXXXXXXXXXXXXXXXXXXXXXo ",
" oXXXXXXXXXXXXXXXXXXXXXXXXXXXXo ",
" oXXXXXXXXXXXXXXXXXXXXXXXXXXXXo ",
" oooooooooooooooooooooooooooooo ",
"                                "
};