/* XPM */
static char *wall_xpm[] = {
"32 32 3 1",
" 	c None",     // <--- es transparente.
".	c #000000", // Borde: Negro
"X	c #00A300", // Relleno: Verde
/* pixels */
"................................",
".XXX.XXX.XXX.XXX.XXX.XXX.XXX.XXX",
".XXX.XXX.XXX.XXX.XXX.XXX.XXX.XXX",
".XXX.XXX.XXX.XXX.XXX.XXX.XXX.XXX",
"................................",
".XXX.XXX.XXX.XXX.XXX.XXX.XXX.XXX",
".XXX.XXX.XXX.XXX.XXX.XXX.XXX.XXX",
".XXX.XXX.XXX.XXX.XXX.XXX.XXX.XXX",
"................................",
".XXX.XXX.XXX.XXX.XXX.XXX.XXX.XXX",
".XXX.XXX.XXX.XXX.XXX.XXX.XXX.XXX",
".XXX.XXX.XXX.XXX.XXX.XXX.XXX.XXX",
"................................",
".XXX.XXX.XXX.XXX.XXX.XXX.XXX.XXX",
".XXX.XXX.XXX.XXX.XXX.XXX.XXX.XXX",
".XXX.XXX.XXX.XXX.XXX.XXX.XXX.XXX",
"................................",
".XXX.XXX.XXX.XXX.XXX.XXX.XXX.XXX",
".XXX.XXX.XXX.XXX.XXX.XXX.XXX.XXX",
".XXX.XXX.XXX.XXX.XXX.XXX.XXX.XXX",
"................................",
".XXX.XXX.XXX.XXX.XXX.XXX.XXX.XXX",
".XXX.XXX.XXX.XXX.XXX.XXX.XXX.XXX",
".XXX.XXX.XXX.XXX.XXX.XXX.XXX.XXX",
"................................",
".XXX.XXX.XXX.XXX.XXX.XXX.XXX.XXX",
".XXX.XXX.XXX.XXX.XXX.XXX.XXX.XXX",
".XXX.XXX.XXX.XXX.XXX.XXX.XXX.XXX",
"................................",
".XXX.XXX.XXX.XXX.XXX.XXX.XXX.XXX",
".XXX.XXX.XXX.XXX.XXX.XXX.XXX.XXX",
".XXX.XXX.XXX.XXX.XXX.XXX.XXX.XXX"
};